<svg xmlns="http://www.w3.org/2000/svg" viewBox="0 0 64 64">
  <defs>
    <radialGradient id="felt" cx="50%" cy="45%" r="75%">
      <stop offset="0" stop-color="#123c18"/>
      <stop offset="0.58" stop-color="#041208"/>
      <stop offset="1" stop-color="#000"/>
    </radialGradient>
    <linearGradient id="gold" x1="0" x2="1" y1="0" y2="1">
      <stop offset="0" stop-color="#fff46b"/>
      <stop offset="1" stop-color="#d39a00"/>
    </linearGradient>
  </defs>

  <rect width="64" height="64" rx="14" fill="url(#felt)"/>
  <rect x="3" y="3" width="58" height="58" rx="12" fill="none" stroke="url(#gold)" stroke-width="3"/>

  <path d="M8 48c10-7 20-8 34-5 5 1 9 1 14-1v14H8z" fill="#00b85f"/>
  <path d="M12 49c11-4 25-4 40 1" fill="none" stroke="#d8ff00" stroke-width="2" stroke-linecap="round"/>

  <circle cx="23" cy="29" r="13" fill="#f7fff4"/>
  <circle cx="18" cy="25" r="1.4" fill="#c8d8c2"/>
  <circle cx="24" cy="24" r="1.4" fill="#c8d8c2"/>
  <circle cx="29" cy="28" r="1.4" fill="#c8d8c2"/>
  <circle cx="21" cy="33" r="1.4" fill="#c8d8c2"/>
  <circle cx="28" cy="35" r="1.4" fill="#c8d8c2"/>

  <rect x="35" y="15" width="20" height="20" rx="5" fill="#e22029" transform="rotate(10 45 25)"/>
  <circle cx="40" cy="21" r="2" fill="#fff7e3"/>
  <circle cx="47" cy="25" r="2" fill="#fff7e3"/>
  <circle cx="43" cy="31" r="2" fill="#fff7e3"/>

  <text x="31" y="58" text-anchor="middle" font-family="Georgia, serif" font-size="13" font-weight="900" fill="#ffd700">CI</text>
</svg>
